<?xml version="1.0" encoding="utf-8"?>
<!-- Generator: Adobe Illustrator 25.1.0, SVG Export Plug-In . SVG Version: 6.00 Build 0)  -->
<svg version="1.1" id="Camada_1" xmlns="http://www.w3.org/2000/svg" xmlns:xlink="http://www.w3.org/1999/xlink" x="0px" y="0px"
	 viewBox="0 0 582 582" style="enable-background:new 0 0 582 582;" xml:space="preserve">
<style type="text/css">
	.st0{fill:#C7EAFA;stroke:#FFFFFF;stroke-width:10;stroke-miterlimit:10;}
	.st1{fill:url(#SVGID_1_);stroke:#000000;stroke-width:10;stroke-linecap:round;stroke-linejoin:round;}
	.st2{fill:#FFFFFF;stroke:#000000;stroke-width:10;stroke-linecap:round;stroke-linejoin:round;}
	.st3{fill:url(#SVGID_2_);}
	.st4{fill:none;stroke:#000000;stroke-width:5;stroke-linecap:round;stroke-linejoin:round;}
	.st5{fill:#FEF5A5;}
	.st6{fill:#FEF5A5;stroke:#000000;stroke-width:10.0104;stroke-miterlimit:4.0042;}
	.st7{fill:none;stroke:#000000;stroke-width:10;stroke-linecap:round;}
	.st8{fill:none;stroke:#000000;stroke-width:10;stroke-linecap:round;stroke-linejoin:round;}
</style>
<circle id="Ellipse_138" class="st0" cx="291" cy="291" r="286"/>
<linearGradient id="SVGID_1_" gradientUnits="userSpaceOnUse" x1="123.1651" y1="370.8156" x2="447.1644" y2="218.6053" gradientTransform="matrix(1 0 0 -1 0 584)">
	<stop  offset="0" style="stop-color:#FFFFFF"/>
	<stop  offset="4.934521e-02" style="stop-color:#FEF6F6"/>
	<stop  offset="0.1305" style="stop-color:#FBDDDF"/>
	<stop  offset="0.2334" style="stop-color:#F7B5B8"/>
	<stop  offset="0.354" style="stop-color:#F07C83"/>
	<stop  offset="0.4878" style="stop-color:#E83640"/>
	<stop  offset="0.571" style="stop-color:#E30613"/>
	<stop  offset="0.6202" style="stop-color:#E40A17"/>
	<stop  offset="0.6742" style="stop-color:#E51824"/>
	<stop  offset="0.7304" style="stop-color:#E72E39"/>
	<stop  offset="0.7882" style="stop-color:#EB4C56"/>
	<stop  offset="0.8472" style="stop-color:#EF747B"/>
	<stop  offset="0.9072" style="stop-color:#F5A4A9"/>
	<stop  offset="0.9669" style="stop-color:#FBDDDE"/>
	<stop  offset="1" style="stop-color:#FFFFFF"/>
</linearGradient>
<path class="st1" d="M498.1,413.3c0,0-11.8,46.8-92.7,24.7C324.6,415.9,118,298.4,190.3,246.6s146.3-30.3,146.3-30.3l9.8,10.7
	c2,1.3,62.7,86.1,62.7,86.1S478.2,404.9,498.1,413.3"/>
<path class="st2" d="M474.7,403.3c0,0,15.8-49.7,15.8-55.6s25.4,81.3,4.6,80.4C474.3,427.2,474.7,403.3,474.7,403.3z"/>
<path class="st2" d="M350.5,227.1c0,0,0,43.6,0,46.7c0,3.2-37-43.7-37-43.7l-9.1,50.1c0,0-28.7-41-29.4-40.4c0,0-6.2,4.5-14.3,9.2
	l-3.6,42l-27.5-31c0,0,50.6-22.8,60.2-32.9C292.4,226.7,345.4,233.6,350.5,227.1z"/>
<path class="st2" d="M379.5,210c-1.7,2.2,34.7,43.6,34.7,43.6l-4.5-65.1l41.2,65.1l-12-71.4l28.4,35.7v-40.5l33.5,41.7l-9-46.3
	c-4.9-0.3-36.5,0-36.5,0S404.2,178.7,379.5,210z"/>
<path class="st2" d="M260.6,348.3l8.7-37.6c0,0,19.5,25.4,27.3,57.7l25.9,16.9l10.1-50.7c0,0,20.3,46.1,20.6,66.5
	c0.2,20.4,11.2,15.2,11.2,15.2L373,369c0,0,16.8,5.3,23.6,53.3c1.6,2.5,18.1,18.5,27.4,15.6s12.6-8.2,12.6-8.2l20.6-70.1l17.1,67.7
	c0,0,5.6,29.5-30.2,25.3S298.5,411.7,296.4,410s-44.6-32.8-43.4-38.3S260.6,348.3,260.6,348.3z"/>
<linearGradient id="SVGID_2_" gradientUnits="userSpaceOnUse" x1="607.5057" y1="207.5852" x2="96.5592" y2="413.4795" gradientTransform="matrix(1 0 0 -1 0 584)">
	<stop  offset="0.318" style="stop-color:#FEF5A5"/>
	<stop  offset="1" style="stop-color:#B4D594"/>
</linearGradient>
<path class="st3" d="M194.7,257.9c22.5,10.8,73.1-7.8,85.8-25.8s35.7,10.5,67.6-8.4s27.8-25.2,35.2-27.2s49.9-33.8,102.4-29.1
	c12.5-4.6,0-18.8,0-18.8c-29.8-79.6-120.5-4.4-120.5-4.4s3.8-3.8-6.9-6.3s-27.9,6.9-27.9,6.9s-5.4-9.2-10.2-10.3
	c-46.8-18.9-38.8,32.6-64.9,8.7s-60.5,11.2-60.5,11.2s-21.4-12.5-39.8,13.8s-26,29.9-72.5,66.8s0,95.3,0,95.3s17.5,54.7,119.7,80
	s139.8,39.3,166.9,50.2s131.8,13.6,141-12.3c18.5-16.8,0.4-76.1-9.7-40.1s-111.2,18.9-123.2,8.2c-12-10.7-142.1-81.5-163.1-95.4
	S194.7,257.9,194.7,257.9"/>
<path class="st4" d="M200.8,260.3c-8.5,0-15.4-6.9-15.4-15.4s6.9-15.4,15.4-15.4"/>
<path class="st4" d="M222.8,260.3c-8.5,0-15.4-6.9-15.4-15.4s6.9-15.4,15.4-15.4"/>
<path class="st4" d="M237.2,253.6c-8.5,0-15.4-6.9-15.4-15.4s6.9-15.4,15.4-15.4"/>
<path class="st4" d="M254.9,244.8c-8.5,0-15.4-6.9-15.4-15.4s6.9-15.4,15.4-15.4"/>
<path class="st4" d="M270.3,235.8c-8.5,0-15.4-6.9-15.4-15.4s6.9-15.4,15.4-15.4"/>
<path class="st4" d="M285.7,229.4c-8.5,0-15.4-6.9-15.4-15.4s6.9-15.4,15.4-15.4"/>
<path class="st4" d="M301.2,225.4c-8.5,0-15.4-6.9-15.4-15.4s6.9-15.4,15.4-15.4"/>
<path class="st4" d="M379.3,197.8c-8.5,0-15.4-7.7-15.4-17.2s6.9-17.2,15.4-17.2"/>
<path class="st4" d="M409.3,187c-8.1,2.5-16.8-2-19.3-10.1s2-16.7,10.2-19.3"/>
<path class="st4" d="M321,228.5c-8.5,0-15.4-8.8-15.4-19.6s6.9-19.6,15.4-19.6"/>
<path class="st4" d="M342.7,224.5c-8.5,0-15.4-8.8-15.4-19.6s6.9-19.6,15.4-19.6"/>
<path class="st4" d="M363.8,209c-8.5,0-15.4-8.8-15.4-19.6s6.9-19.6,15.4-19.6"/>
<path class="st4" d="M197.3,229.8C121.2,192.1,113,217,110.5,217c-22.4,28.4-15.7,77.2-15.4,78c0,0-7.2,0.4,10.3,13.7
	s54.2,49.4,60.5,90.5"/>
<path class="st4" d="M135.7,269.1c0,0-7.2-37,8.9-60.2s14.2-38.4,14.2-38.4"/>
<path class="st4" d="M64.3,264.7c4.2-4.2,26.6-22.8,82.2-7.3"/>
<path class="st4" d="M180.3,253.6c-1.9,0.4-24.5,17.1-46.2,20.2"/>
<path class="st4" d="M193.1,259c-6.8,1.8-20.7,17.3-27.6,17c-6.9-0.3-24,3.8-24,3.8s-10.8,2.9-15.5,3.8"/>
<path class="st4" d="M197.3,273.8c-3.8-0.9-18.9,6.3-28.7,14.2c-9.8,7.9-56.2,2.1-56.2,2.1"/>
<path class="st4" d="M198,287.1c-0.1-0.4-24.3,6.3-31.9,12.3c-7.6,6-18.6,2.2-18.6,2.2"/>
<circle cx="138" cy="302.8" r="2.8"/>
<path class="st4" d="M199.5,300c-2.8,0.6-16.1,4.4-19.3,6.9s-10.1,1.6-10.1,1.6"/>
<path class="st4" d="M197.3,310.8c0,0-9.8,4.7-12.4,4.7"/>
<path class="st4" d="M210.4,317.6c0,0-24.9,29.9-72.4-4.5c-9.8-7.1-33.8-32.1-48.1-7.6"/>
<path class="st4" d="M150.2,320.9c0,0,39.5,30.2,53.1,90.2"/>
<path class="st4" d="M195.5,327.2c0,0,33.5,30.4,41.7,90"/>
<path class="st4" d="M222.8,327.2c0,0,48.3,39,45.3,103"/>
<path class="st4" d="M285.4,363.3c0,0,28.4,34.2,27,77.5"/>
<path class="st4" d="M330.9,388.5c0,0,26.7,17.4,28.5,68.5"/>
<path class="st4" d="M368.8,413.4c0,0,20.1,18.8,28.1,53.6"/>
<path class="st4" d="M408.2,426.9c0,0,15.8,19.2,22.1,42.2"/>
<path class="st4" d="M442.1,430.6c0,0,16.8,18.4,23.2,36.4"/>
<path class="st4" d="M474.7,426.9c0,0,16.8,18.4,23.2,36.4"/>
<path class="st4" d="M501.2,409.7c0,0,12.2,14.5,16.8,28.7"/>
<circle cx="420.1" cy="142.3" r="6.8"/>
<circle cx="457.1" cy="130.3" r="8.3"/>
<path class="st4" d="M280.1,197.8c0,0,5.7-38.1,45.2-55.5"/>
<path class="st4" d="M308.5,197.6c0,0,19-52.6,50.9-55.3"/>
<path class="st4" d="M346.4,187.7c0-2-7.3-22.8,23.3-45.4"/>
<path class="st4" d="M421.8,161.4c2.5,0.6,40.7,19.1,62.2-9.2"/>
<path class="st4" d="M345.6,182.9c-4-1.3-35-16.7-69.3-17.9"/>
<circle cx="315.9" cy="160.9" r="2.4"/>
<circle cx="301" cy="182.9" r="2.4"/>
<circle cx="159.5" cy="231.8" r="2.4"/>
<circle cx="122" cy="231.8" r="2.4"/>
<circle cx="113.4" cy="267.7" r="2.4"/>
<circle cx="80.1" cy="276.2" r="2.4"/>
<circle cx="97.9" cy="318.5" r="2.4"/>
<circle cx="145.5" cy="329.7" r="2.4"/>
<circle cx="122" cy="346" r="2.4"/>
<circle cx="138.4" cy="368.3" r="2.4"/>
<circle cx="163.8" cy="356.8" r="2.4"/>
<circle cx="193.1" cy="345.1" r="2.4"/>
<circle cx="206.8" cy="374.6" r="2.4"/>
<circle cx="179.1" cy="387.6" r="2.4"/>
<circle cx="221.8" cy="399.2" r="2.4"/>
<circle cx="254.9" cy="411.6" r="2.4"/>
<circle cx="287.8" cy="405.8" r="2.4"/>
<circle cx="321.7" cy="396" r="2.4"/>
<circle cx="333.3" cy="425.2" r="2.4"/>
<circle cx="375" cy="446.3" r="2.4"/>
<circle cx="439.7" cy="451.5" r="2.4"/>
<circle cx="473.1" cy="447.5" r="2.4"/>
<circle cx="274" cy="375.3" r="2.4"/>
<circle cx="248.2" cy="388.5" r="2.4"/>
<circle cx="233.5" cy="359.2" r="2.4"/>
<circle cx="217.1" cy="334.5" r="2.4"/>
<path class="st4" d="M90.2,343.6c3.6-0.7,18.8-19.3,31.9-22.8s21-4.3,21-4.3"/>
<path class="st4" d="M115.8,372.2c0,0,36-42.2,81.5-42.5"/>
<path class="st4" d="M146.5,393.5c1.5-2.2,44.2-38.2,98.5-54.1"/>
<path class="st4" d="M181.5,404.9c2.9-1.9,60-44.1,94.9-45.7"/>
<path class="st4" d="M219.4,415.1c2.2-1.1,77-32.5,84.3-38.1"/>
<path class="st4" d="M261.6,428.1c6.7-0.2,79.7-21.4,89.8-28.3"/>
<path class="st4" d="M334.7,448c5.7-2.8,49.6-19.3,52.4-25.2"/>
<path class="st4" d="M387.1,465.6c2.5-1.7,30.4-19,43.2-32.9"/>
<g id="Ellipse_1" transform="matrix(0.914, -0.407, 0.407, 0.914, 118.48, 62.173)">
	
		<ellipse transform="matrix(-1 5.211619e-06 -5.211619e-06 -1 81.2034 297.8462)" class="st5" cx="40.6" cy="148.9" rx="31.5" ry="27.5"/>
	
		<ellipse transform="matrix(-1 5.209970e-06 -5.209970e-06 -1 81.2034 297.8462)" class="st6" cx="40.6" cy="148.9" rx="26.5" ry="22.5"/>
</g>
<path id="Path_1" class="st7" d="M171.8,202.9l30.3-50.3c0,0,39.3,1.4,60.5,14.7"/>
<path id="Subtraction_1" d="M219.2,197.8L219.2,197.8c-1.6,0-3.4-1.8-5.2-5.1c-2.1-4-3.6-8.2-4.6-12.6c-0.3-1.3-0.6-2.6-0.8-3.9
	c2.4-0.5,4-2.8,3.5-5.3c-0.4-2-2.1-3.5-4.2-3.6c0.2-4.4,1.2-7.1,2.9-7.5c0.1,0,0.3-0.1,0.4-0.1c1.6,0,3.4,1.8,5.2,5.1
	c2.1,4,3.6,8.2,4.6,12.6c1.1,4.5,1.6,9.2,1.4,13.8c-0.3,3.8-1.3,6.2-2.8,6.5C219.5,197.8,219.3,197.8,219.2,197.8z"/>
<path class="st8" d="M195.7,258.7c0,0-1.5,49.2,19.5,63.1s151.1,84.6,163.1,95.4s113,27.8,123.1-8.2s28.2,23.3,9.7,40.1
	c-9.2,25.8-113.9,23.2-141,12.3s-64.7-25-166.9-50.2s-119.7-80-119.7-80s-46.5-58.4,0-95.3s54.1-40.5,72.5-66.8s39.8-13.8,39.8-13.8
	s34.4-35.1,60.5-11.2s18.1-27.7,64.9-8.7c4.8,1.1,10.2,10.3,10.2,10.3s17.2-9.5,27.9-6.9c10.7,2.5,6.9,6.3,6.9,6.3
	s90.7-75.2,120.5,4.4c0,0,12.5,14.2,0,18.8c-52.6-4.7-95,27.1-102.4,29.1s-3.4,8.3-35.2,27.2s-54.8-9.6-67.6,8.4
	S218.2,269.5,195.7,258.7c-22.5-10.8-50.9-3.4-68,19.1s-42.3,10.5-42.3,10.5"/>
<path class="st2" d="M440.1,345.6l-19.5-48.8l-12.2,46.7C408.4,343.5,417.2,364.5,440.1,345.6z"/>
<path class="st2" d="M422.3,351.5c-0.6-4.1,22.7-72.8,22.7-72.8l9.7,89.3C454.7,367.9,428,390.7,422.3,351.5z"/>
</svg>
