<?xml version="1.0" encoding="utf-8"?>
<!-- Generator: Adobe Illustrator 25.1.0, SVG Export Plug-In . SVG Version: 6.00 Build 0)  -->
<svg version="1.1" id="Layer_1" xmlns="http://www.w3.org/2000/svg" xmlns:xlink="http://www.w3.org/1999/xlink" x="0px" y="0px"
	 viewBox="0 0 432 288" style="enable-background:new 0 0 432 288;" xml:space="preserve">
<style type="text/css">
	.st0{fill:#F0A700;}
	.st1{fill:#FFFFFF;}
	.st2{fill:#FF3648;}
	.st3{fill:#0068A2;}
	.st4{fill:#00AA56;}
</style>
<g>
	<g>
		<path class="st0" d="M177.2,126.3H81.8V54.4h95.5c11.3,0,20.5,9.2,20.5,20.5v30.9C197.7,117.1,188.6,126.3,177.2,126.3z"/>
		<g>
			<polygon class="st0" points="58.4,128.2 58.4,74.6 46.1,74.6 46.1,52.5 86.4,52.5 86.4,128.2 			"/>
			<path class="st1" d="M84.5,54.4v71.9H60.3V72.7H48V54.4H84.5 M88.3,50.7h-3.7H48h-3.7v3.7v18.3v3.7H48h8.6v49.9v3.7h3.7h24.2h3.7
				v-3.7V54.4V50.7L88.3,50.7z"/>
		</g>
	</g>
	<g>
		<path class="st2" d="M371.5,126.3h-95.5V54.4h95.5c11.3,0,20.5,9.2,20.5,20.5v30.9C392,117.1,382.8,126.3,371.5,126.3z"/>
		<g>
			<path class="st2" d="M242.8,128.1v-17.2l26-24c2-1.9,3.4-3.5,4-4.8c0.6-1.2,0.9-2.4,0.9-3.5c0-1.2-0.3-2-1.1-2.7
				c-0.8-0.7-2.1-1-3.9-1c-1.8,0-3.5,0.5-5.1,1.4c-1.6,1-2.8,2.3-3.6,4.1l-0.8,1.7L238,71.5l0.9-1.7c2.8-5.3,7-9.6,12.5-12.6
				c5.4-3.1,12-4.6,19.6-4.6c5.8,0,11,1,15.5,2.9c4.6,1.9,8.2,4.7,10.8,8.3c2.6,3.7,4,7.9,4,12.6c0,4.1-0.9,8.1-2.6,11.7
				c-1.8,3.6-5,7.6-10,12.1l-6.5,6h20.8v22H242.8z"/>
			<path class="st1" d="M271,54.4c5.6,0,10.5,0.9,14.8,2.7c4.3,1.8,7.6,4.4,10,7.7c2.4,3.3,3.6,7.2,3.6,11.5c0,3.9-0.8,7.5-2.5,10.9
				c-1.6,3.4-4.8,7.2-9.6,11.5l-10,9.1H301v18.4h-56.3v-14.6l25.4-23.5c2.2-2.1,3.7-3.8,4.4-5.3c0.7-1.5,1.1-2.9,1.1-4.3
				c0-1.7-0.6-3.1-1.8-4.1c-1.2-1-2.9-1.5-5.1-1.5c-2.1,0-4.2,0.6-6,1.7c-1.9,1.1-3.3,2.7-4.3,4.8l-17.9-8.9c2.7-5,6.6-9,11.7-11.9
				C257.4,55.9,263.7,54.4,271,54.4 M271,50.7c-7.9,0-14.8,1.6-20.5,4.8c-5.7,3.2-10.2,7.7-13.2,13.4l-1.8,3.3l3.4,1.7l17.9,8.9
				l3.3,1.7l1.6-3.3c0.7-1.4,1.7-2.5,2.9-3.3c1.3-0.8,2.7-1.2,4.1-1.2c1.3,0,2.3,0.2,2.7,0.6c0.2,0.1,0.4,0.4,0.4,1.2
				c0,0.8-0.2,1.7-0.7,2.7c-0.3,0.6-1.2,2-3.6,4.3L242.2,109l-1.2,1.1v1.6v14.6v3.7h3.7H301h3.7v-3.7v-18.4v-3.7H301h-14.2l3.1-2.8
				c5.1-4.6,8.5-8.8,10.4-12.6c1.9-3.9,2.8-8.1,2.8-12.5c0-5.1-1.4-9.7-4.3-13.7c-2.8-3.9-6.7-6.9-11.6-9
				C282.4,51.8,277,50.7,271,50.7L271,50.7z"/>
		</g>
	</g>
	<g>
		<path class="st3" d="M177.2,233.3H81.8v-71.9h95.5c11.3,0,20.5,9.2,20.5,20.5v30.9C197.7,224.2,188.6,233.3,177.2,233.3z"/>
		<g>
			<path class="st3" d="M72.4,235.2c-5.1,0-10.2-0.6-15.2-1.6c-5.1-1.1-9.6-2.8-13.4-4.9l-1.5-0.8l9.6-20.8l1.7,1
				c2.7,1.6,5.7,2.8,8.8,3.6c3.1,0.8,6.2,1.2,9.1,1.2c2.4,0,4.3-0.4,5.7-1.2c1.1-0.6,1.6-1.3,1.6-2.4c0-0.7,0-3-6.5-3H61.3v-17.1
				l7.8-8H46.5v-21.5h56.1v17.1l-11.4,11.6c4.4,1.5,7.9,3.9,10.5,7c3.2,3.8,4.8,8.5,4.8,13.9c0,4.5-1.3,8.8-3.7,12.8
				c-2.5,3.9-6.3,7.1-11.5,9.6C86.1,234,79.8,235.2,72.4,235.2z"/>
			<path class="st1" d="M100.7,161.5V176l-13.1,13.3c5.4,1.3,9.6,3.8,12.5,7.3c2.9,3.5,4.4,7.7,4.4,12.7c0,4.2-1.2,8.2-3.5,11.8
				c-2.3,3.6-5.9,6.6-10.7,8.9c-4.8,2.3-10.8,3.4-18,3.4c-5,0-9.9-0.5-14.8-1.6c-4.9-1.1-9.2-2.6-12.9-4.7l8-17.5
				c2.9,1.7,6,2.9,9.3,3.8c3.3,0.9,6.5,1.3,9.6,1.3c2.7,0,5-0.5,6.6-1.4c1.7-0.9,2.5-2.3,2.5-4c0-3.2-2.8-4.8-8.3-4.8h-9.3v-14.6
				l10.3-10.5H48.3v-17.9H100.7 M104.4,157.8h-3.7H48.3h-3.7v3.7v17.9v3.7h3.7h16.4l-4.2,4.3l-1,1.1v1.5v14.6v3.7h3.7h9.3
				c3.8,0,4.6,0.9,4.6,0.9l0,0c0,0,0,0.1,0,0.3c0,0.3,0,0.5-0.6,0.8c-1.1,0.6-2.7,0.9-4.8,0.9c-2.8,0-5.7-0.4-8.7-1.2
				c-3-0.8-5.8-1.9-8.4-3.4l-3.5-2l-1.7,3.7l-8,17.5l-1.4,3.1l2.9,1.7c4,2.2,8.7,4,13.9,5.1c5.2,1.1,10.4,1.7,15.6,1.7
				c7.7,0,14.2-1.3,19.5-3.8c5.4-2.6,9.5-6,12.2-10.2c2.7-4.2,4-8.9,4-13.8c0-5.8-1.8-10.9-5.2-15c-2.3-2.7-5.2-4.9-8.7-6.5l9-9.1
				l1.1-1.1V176v-14.6V157.8L104.4,157.8z"/>
		</g>
	</g>
	<g>
		<path class="st4" d="M371.5,233.3h-95.5v-71.9h95.5c11.3,0,20.5,9.2,20.5,20.5v30.9C392,224.2,382.8,233.3,371.5,233.3z"/>
		<g>
			<path class="st4" d="M274.9,235.4V223h-37.6v-18.1L269,159h29.7l-20,30h23.8v11.1h9.6V223h-9.6v12.4H274.9z M275.7,200.1v-6.4
				l-4.2,6.4H275.7z"/>
			<path class="st1" d="M295.1,161l-27.3,41.1h9.8V191h23v11.1h9.6V221h-9.6v12.4h-23.7V221h-37.6v-15.5L270,161H295.1 M302.4,157.1
				h-7.3h-25h-2l-1.2,1.7l-30.7,44.5l-0.7,1v1.2V221v3.9h3.9H273v8.5v3.9h3.9h23.7h3.9v-3.9v-8.5h5.7h3.9V221v-18.9v-3.9h-3.9h-5.7
				V191v-3.9h-3.9h-18.2l15.9-24L302.4,157.1L302.4,157.1z"/>
		</g>
	</g>
</g>
</svg>
